# xmcd
#
# Track frame offsets: 
#        150
#        15508
#        29917
#        46348
#        64403
#        83488
#        97114
#        113456
#        127297
#        141671
#        159210
#        174946
#        242832
#
# Disc length: 3862 seconds
#
# Revision: 1
# Processed by: cddbd v1.5.2PL0 Copyright (c) Steve Scherf et al.
# Submitted via: ExactAudioCopy v1.0b1
#
DISCID=b00f140d
DTITLE=Fredrika Stahl - Tributaries
DYEAR=2008
DGENRE=Jazz
TTITLE0=Monumental mismatch
TTITLE1=So high
TTITLE2=Pourquai pas moi?
TTITLE3=Irreplaceable
TTITLE4=Stuck on a stranger
TTITLE5=Oh sunny dunny day
TTITLE6=One man show
TTITLE7=I'll win your heart
TTITLE8=Dina ögon blå
TTITLE9=The damage is done
TTITLE10=Irresistiblement
TTITLE11=My favorite boy
TTITLE12=data
EXTD=YEAR: 2008
EXTT0=
EXTT1=
EXTT2=
EXTT3=
EXTT4=
EXTT5=
EXTT6=
EXTT7=
EXTT8=
EXTT9=
EXTT10=
EXTT11=
EXTT12=
PLAYORDER=
